<?xml version="1.0" encoding="UTF-8"?> <svg xmlns="http://www.w3.org/2000/svg" width="1733pt" height="402pt" viewBox="0 0 1733 402" version="1.1"><g id="#ffffffff"> </g><g id="#ffc803ff"><path fill="#ffc803" opacity="1.00" d=" M 324.95 61.82 C 339.80 59.28 354.76 57.37 369.81 56.55 C 369.81 140.24 369.79 223.94 369.82 307.63 C 409.59 281.11 444.26 245.55 465.43 202.36 C 475.89 180.57 482.86 156.41 481.21 132.04 C 480.10 114.09 473.27 96.31 460.98 83.03 C 450.67 71.60 437.01 63.76 422.74 58.33 C 447.55 61.75 472.64 68.96 492.92 84.18 C 506.62 94.42 517.30 109.16 520.99 126.02 C 525.74 146.59 520.80 168.16 511.83 186.87 C 499.92 211.47 481.77 232.48 461.80 250.90 C 435.01 275.23 404.40 295.12 372.10 311.33 C 325.37 334.63 274.81 350.54 222.92 356.84 C 212.98 357.59 203.05 359.20 193.06 358.85 C 173.66 352.08 156.98 338.26 146.15 320.83 C 124.39 288.03 116.97 246.70 123.52 208.10 C 126.01 194.35 130.77 180.95 137.99 168.97 C 140.33 164.70 143.51 160.99 146.06 156.87 C 124.04 181.60 105.72 210.39 96.75 242.49 C 90.13 266.42 89.52 293.31 101.26 315.79 C 111.52 335.87 131.04 349.74 152.02 356.90 C 139.08 356.42 126.44 352.86 114.19 348.84 C 105.54 345.85 97.06 342.35 89.00 338.01 C 71.84 328.25 57.09 312.80 51.54 293.50 C 45.82 274.62 48.87 254.15 56.15 236.14 C 65.86 212.18 82.17 191.55 100.18 173.26 C 138.02 136.06 184.44 108.48 233.37 88.50 C 236.61 87.10 239.88 85.73 243.31 84.90 C 211.99 99.82 183.02 119.73 158.21 144.01 C 181.34 124.42 212.31 117.06 242.05 116.85 C 263.38 116.57 284.02 124.75 301.39 136.72 C 308.90 141.89 315.93 147.83 321.84 154.80 C 321.76 124.49 321.82 94.17 321.80 63.86 C 321.24 61.86 323.85 62.27 324.95 61.82 M 229.58 153.75 C 214.18 155.92 198.97 162.65 188.71 174.63 C 176.63 188.50 171.72 207.03 170.00 224.97 C 168.36 244.14 168.98 264.01 175.75 282.22 C 181.72 297.70 191.84 312.30 206.58 320.52 C 221.40 328.96 239.15 331.31 255.92 329.29 C 277.35 326.48 295.95 312.53 307.91 294.98 C 316.83 281.79 323.42 266.22 322.86 250.04 C 322.47 231.29 320.44 212.20 313.27 194.72 C 307.67 180.90 297.94 168.41 284.67 161.28 C 267.95 152.23 248.08 151.20 229.58 153.75 Z"></path></g><g id="#6b696bff"><path fill="#6b696b" opacity="1.00" d=" M 676.68 134.45 C 685.92 134.42 695.15 134.43 704.39 134.45 C 704.39 179.60 704.40 224.76 704.38 269.91 C 695.97 269.91 687.56 269.92 679.15 269.91 C 679.15 265.46 679.13 261.02 679.17 256.58 C 667.92 268.00 651.40 271.43 636.04 272.86 C 618.62 273.06 600.11 271.52 585.03 261.96 C 571.49 252.86 561.92 237.46 561.09 221.02 C 560.32 210.40 563.39 199.43 570.23 191.18 C 579.28 179.96 593.00 173.46 606.98 170.92 C 619.87 168.61 633.16 168.41 646.12 170.34 C 657.67 171.96 668.16 178.03 676.71 185.76 C 676.64 168.66 676.70 151.56 676.68 134.45 M 621.50 184.73 C 613.14 185.76 604.63 188.54 598.39 194.42 C 592.99 199.46 590.04 206.64 589.16 213.88 C 587.73 224.26 589.36 235.61 596.00 244.01 C 601.09 250.71 608.81 255.01 616.93 256.86 C 631.63 260.13 647.50 258.71 661.07 252.03 C 666.92 249.28 672.18 244.80 674.76 238.76 C 678.26 230.67 677.62 221.50 676.05 213.03 C 674.23 203.04 668.08 193.68 658.83 189.15 C 647.35 183.47 633.98 183.17 621.50 184.73 Z"></path><path fill="#6b696b" opacity="1.00" d=" M 1541.80 134.52 C 1550.72 134.33 1559.65 134.49 1568.58 134.44 C 1568.59 151.29 1568.57 168.14 1568.59 184.99 C 1575.60 180.03 1582.73 174.96 1590.79 171.83 C 1600.24 169.03 1610.25 169.07 1620.03 169.08 C 1632.50 169.44 1645.11 171.32 1656.63 176.32 C 1662.32 178.80 1667.53 182.84 1670.47 188.41 C 1673.05 193.15 1673.90 198.63 1673.88 203.98 C 1673.86 225.95 1673.88 247.93 1673.87 269.91 C 1664.81 269.92 1655.75 269.91 1646.69 269.91 C 1646.67 248.57 1646.70 227.24 1646.68 205.90 C 1646.79 199.29 1644.20 192.20 1638.42 188.54 C 1632.59 185.10 1625.65 184.40 1619.03 184.03 C 1606.98 183.48 1594.52 185.07 1583.72 190.71 C 1573.79 195.32 1567.98 206.20 1568.58 216.99 C 1568.59 234.63 1568.57 252.26 1568.59 269.90 C 1559.67 269.93 1550.76 269.91 1541.86 269.91 C 1541.81 224.78 1541.93 179.65 1541.80 134.52 Z"></path><path fill="#6b696b" opacity="1.00" d=" M 742.00 135.00 C 751.33 135.00 760.66 135.00 770.00 135.00 C 770.00 141.33 770.00 147.67 770.00 154.00 C 760.67 154.00 751.33 154.00 742.00 154.00 C 741.99 147.67 742.00 141.33 742.00 135.00 Z"></path><path fill="#6b696b" opacity="1.00" d=" M 1127.04 150.22 C 1136.43 150.23 1145.82 150.22 1155.22 150.23 C 1155.24 158.20 1155.22 166.17 1155.23 174.14 C 1170.06 174.16 1184.90 174.13 1199.74 174.16 C 1199.73 178.43 1199.73 182.71 1199.74 186.99 C 1184.90 187.02 1170.06 186.98 1155.23 187.01 C 1155.30 206.33 1155.11 225.65 1155.32 244.96 C 1155.55 251.04 1161.02 255.26 1166.51 256.65 C 1179.02 260.07 1192.11 258.00 1204.81 256.90 C 1204.76 261.78 1204.71 266.66 1204.65 271.53 C 1189.12 273.00 1173.44 273.71 1157.90 272.10 C 1149.44 271.12 1140.68 269.38 1133.54 264.49 C 1127.74 260.39 1127.51 252.47 1127.08 246.06 C 1126.95 226.37 1127.07 206.69 1127.02 187.00 C 1118.13 186.99 1109.24 187.02 1100.35 186.99 C 1100.35 182.71 1100.35 178.43 1100.35 174.16 C 1109.24 174.13 1118.13 174.16 1127.02 174.14 C 1127.04 166.17 1127.01 158.20 1127.04 150.22 Z"></path><path fill="#6b696b" opacity="1.00" d=" M 1274.57 168.68 C 1291.98 166.15 1310.45 167.78 1326.35 175.69 C 1334.40 179.78 1341.83 185.68 1346.34 193.63 C 1352.26 203.45 1354.50 215.04 1354.59 226.39 C 1318.24 226.42 1281.90 226.37 1245.56 226.42 C 1245.75 233.38 1247.25 240.68 1251.85 246.14 C 1257.70 253.27 1266.96 256.32 1275.79 257.63 C 1288.82 259.37 1302.84 259.06 1314.69 252.73 C 1320.12 249.64 1325.83 245.58 1327.48 239.18 C 1335.98 239.23 1344.49 239.09 1353.01 239.26 C 1349.19 248.81 1342.33 257.22 1333.37 262.38 C 1319.26 271.12 1302.17 272.66 1285.95 272.88 C 1267.94 272.95 1248.79 269.37 1234.75 257.33 C 1226.92 250.66 1221.08 241.42 1219.46 231.17 C 1217.13 216.00 1221.20 199.33 1232.33 188.35 C 1243.63 177.21 1259.06 171.06 1274.57 168.68 M 1262.00 189.85 C 1253.54 194.64 1245.74 202.75 1245.52 213.04 C 1273.17 213.06 1300.83 213.05 1328.48 213.04 C 1327.79 206.00 1325.09 199.08 1320.06 194.01 C 1313.90 187.34 1304.68 184.75 1295.92 183.87 C 1284.38 182.47 1272.15 183.88 1262.00 189.85 Z"></path><path fill="#6b696b" opacity="1.00" d=" M 830.52 185.82 C 841.92 175.25 857.45 169.68 872.91 169.32 C 887.36 168.98 902.64 170.17 915.43 177.54 C 924.16 182.47 930.18 191.93 930.20 202.05 C 930.31 224.73 930.22 247.42 930.24 270.10 C 921.76 270.11 913.28 270.11 904.81 270.10 C 904.79 249.75 904.82 229.40 904.80 209.05 C 904.82 201.76 902.61 193.95 896.87 189.10 C 891.26 184.75 883.85 183.98 877.00 183.62 C 865.30 183.34 852.94 185.24 843.22 192.20 C 838.53 195.65 834.55 200.36 832.87 206.01 C 831.50 210.20 831.71 214.68 831.72 219.03 C 831.73 236.05 831.72 253.07 831.72 270.10 C 823.39 270.12 815.06 270.11 806.74 270.10 C 806.73 237.30 806.72 204.50 806.74 171.70 C 814.67 171.69 822.61 171.71 830.55 171.69 C 830.58 176.40 830.61 181.11 830.52 185.82 Z"></path><path fill="#6b696b" opacity="1.00" d=" M 1402.02 180.12 C 1420.86 170.01 1442.95 167.76 1463.99 169.20 C 1475.54 170.33 1487.17 173.05 1497.43 178.60 C 1506.97 183.81 1513.05 193.83 1514.74 204.41 C 1506.10 204.44 1497.47 204.43 1488.84 204.42 C 1487.06 197.97 1482.92 192.18 1476.99 188.97 C 1465.72 182.87 1452.32 182.76 1439.94 184.49 C 1430.50 185.72 1420.85 189.02 1414.14 196.04 C 1408.52 201.86 1405.78 209.93 1405.35 217.90 C 1404.77 227.00 1406.29 236.74 1411.95 244.15 C 1417.62 251.51 1426.60 255.52 1435.51 257.33 C 1448.45 259.52 1462.31 258.26 1474.04 252.09 C 1480.81 248.60 1486.42 242.59 1488.26 235.07 C 1497.09 235.06 1505.91 235.05 1514.74 235.07 C 1512.78 244.95 1506.79 253.79 1498.56 259.53 C 1485.79 268.77 1469.67 271.39 1454.30 272.39 C 1441.36 273.31 1428.32 271.60 1415.89 268.02 C 1405.78 264.69 1395.08 261.27 1387.47 253.43 C 1377.77 243.41 1374.71 228.31 1377.27 214.89 C 1378.33 199.80 1389.04 187.03 1402.02 180.12 Z"></path><path fill="#6b696b" opacity="1.00" d=" M 742.00 172.00 C 751.33 172.00 760.66 172.00 770.00 172.00 C 770.00 204.67 770.00 237.33 770.00 270.00 C 760.66 270.00 751.33 270.00 742.00 270.00 C 742.00 237.33 742.00 204.67 742.00 172.00 Z"></path><path fill="#6b696b" opacity="1.00" d=" M 977.45 181.46 C 991.03 174.09 1006.85 172.60 1022.04 172.26 C 1036.38 172.28 1051.39 172.93 1064.43 179.57 C 1072.07 183.34 1077.15 191.56 1077.20 200.07 C 1078.15 218.75 1076.71 237.50 1078.41 256.16 C 1078.81 261.87 1081.59 267.06 1084.86 271.65 C 1076.76 271.58 1068.66 271.66 1060.56 271.60 C 1058.15 267.87 1056.51 263.70 1055.69 259.34 C 1043.94 266.54 1030.79 271.66 1016.99 272.92 C 1002.57 274.28 987.38 273.94 973.92 268.05 C 965.49 264.35 957.71 256.76 957.38 247.06 C 956.68 237.92 962.94 229.88 970.43 225.39 C 980.22 219.59 991.67 217.43 1002.86 216.37 C 1020.01 214.66 1037.29 213.57 1054.17 209.85 C 1054.71 203.44 1053.99 195.71 1048.05 191.90 C 1039.09 186.49 1028.17 186.05 1017.98 186.12 C 1009.93 186.50 1001.33 186.91 994.29 191.27 C 989.56 194.31 986.59 199.29 984.44 204.36 C 976.70 203.68 968.96 203.08 961.23 202.37 C 963.94 193.78 969.35 185.75 977.45 181.46 M 1009.10 229.64 C 1002.26 230.77 994.93 231.13 988.95 235.00 C 985.22 237.31 982.31 241.41 982.58 245.94 C 982.80 250.68 986.33 254.48 990.29 256.69 C 998.03 260.76 1007.11 261.00 1015.67 260.58 C 1027.69 259.72 1040.67 256.40 1048.94 247.02 C 1054.70 240.35 1054.05 230.96 1054.26 222.73 C 1039.48 226.53 1024.24 227.99 1009.10 229.64 Z"></path></g></svg> 